<svg width="20" height="26" viewBox="0 0 20 26" fill="none" xmlns="http://www.w3.org/2000/svg">
<path d="M8.39999 0.200195C7.51634 0.200195 6.79999 0.91654 6.79999 1.8002C6.79999 2.68385 7.51634 3.4002 8.39999 3.4002H11.6C12.4836 3.4002 13.2 2.68385 13.2 1.8002C13.2 0.91654 12.4836 0.200195 11.6 0.200195H8.39999Z" fill="#6A3EA1"/>
<path fill-rule="evenodd" clip-rule="evenodd" d="M0.399994 5.0002C0.399994 3.23288 1.83268 1.8002 3.59999 1.8002C3.59999 4.45116 5.74903 6.60019 8.39999 6.60019H11.6C14.251 6.60019 16.4 4.45116 16.4 1.8002C18.1673 1.8002 19.6 3.23288 19.6 5.0002V22.6002C19.6 24.3675 18.1673 25.8002 16.4 25.8002H3.59999C1.83268 25.8002 0.399994 24.3675 0.399994 22.6002V5.0002ZM15.9314 14.1316C16.5562 13.5067 16.5562 12.4937 15.9314 11.8688C15.3065 11.244 14.2935 11.244 13.6686 11.8688L8.39999 17.1375L6.33137 15.0688C5.70653 14.444 4.69346 14.444 4.06862 15.0688C3.44378 15.6937 3.44378 16.7067 4.06862 17.3316L7.26862 20.5316C7.89346 21.1564 8.90653 21.1564 9.53136 20.5316L15.9314 14.1316Z" fill="#6A3EA1"/>
</svg>
