<svg width="22" height="26" viewBox="0 0 22 26" fill="none" xmlns="http://www.w3.org/2000/svg">
<path d="M7.70713 14.9686C7.3166 14.5781 6.68344 14.5781 6.29291 14.9686C5.90239 15.3591 5.90239 15.9923 6.29291 16.3828L7.70713 14.9686ZM9.66669 18.3424L8.95958 19.0495C9.3501 19.44 9.98327 19.44 10.3738 19.0495L9.66669 18.3424ZM15.7071 13.7161C16.0977 13.3256 16.0977 12.6925 15.7071 12.3019C15.3166 11.9114 14.6834 11.9114 14.2929 12.3019L15.7071 13.7161ZM19.3334 6.34237V22.3424H21.3334V6.34237H19.3334ZM17.6667 24.009H4.33335V26.009H17.6667V24.009ZM2.66669 22.3424V6.34237H0.666687V22.3424H2.66669ZM4.33335 4.6757H7.00002V2.6757H4.33335V4.6757ZM15 4.6757H17.6667V2.6757H15V4.6757ZM4.33335 24.009C3.41288 24.009 2.66669 23.2628 2.66669 22.3424H0.666687C0.666687 24.3674 2.30831 26.009 4.33335 26.009V24.009ZM19.3334 22.3424C19.3334 23.2628 18.5872 24.009 17.6667 24.009V26.009C19.6917 26.009 21.3334 24.3674 21.3334 22.3424H19.3334ZM21.3334 6.34237C21.3334 4.31732 19.6917 2.6757 17.6667 2.6757V4.6757C18.5872 4.6757 19.3334 5.42189 19.3334 6.34237H21.3334ZM2.66669 6.34237C2.66669 5.42189 3.41288 4.6757 4.33335 4.6757V2.6757C2.30831 2.6757 0.666687 4.31732 0.666687 6.34237H2.66669ZM6.29291 16.3828L8.95958 19.0495L10.3738 17.6353L7.70713 14.9686L6.29291 16.3828ZM10.3738 19.0495L15.7071 13.7161L14.2929 12.3019L8.95958 17.6353L10.3738 19.0495ZM9.66669 2.00903H12.3334V0.0090332H9.66669V2.00903ZM12.3334 5.34237H9.66669V7.34237H12.3334V5.34237ZM9.66669 5.34237C8.74621 5.34237 8.00002 4.59617 8.00002 3.6757H6.00002C6.00002 5.70074 7.64164 7.34237 9.66669 7.34237V5.34237ZM14 3.6757C14 4.59617 13.2538 5.34237 12.3334 5.34237V7.34237C14.3584 7.34237 16 5.70074 16 3.6757H14ZM12.3334 2.00903C13.2538 2.00903 14 2.75523 14 3.6757H16C16 1.65066 14.3584 0.0090332 12.3334 0.0090332V2.00903ZM9.66669 0.0090332C7.64164 0.0090332 6.00002 1.65066 6.00002 3.6757H8.00002C8.00002 2.75523 8.74621 2.00903 9.66669 2.00903V0.0090332Z" fill="#827D89"/>
</svg>
