<svg width="26" height="26" viewBox="0 0 26 26" fill="none" xmlns="http://www.w3.org/2000/svg">
<path d="M1 13.0093L3.66667 10.3426M3.66667 10.3426L13 1.00928L22.3333 10.3426M3.66667 10.3426V23.6759C3.66667 24.4123 4.26362 25.0093 5 25.0093H9M22.3333 10.3426L25 13.0093M22.3333 10.3426V23.6759C22.3333 24.4123 21.7364 25.0093 21 25.0093H17M9 25.0093C9.73638 25.0093 10.3333 24.4123 10.3333 23.6759V18.3426C10.3333 17.6062 10.9303 17.0093 11.6667 17.0093H14.3333C15.0697 17.0093 15.6667 17.6062 15.6667 18.3426V23.6759C15.6667 24.4123 16.2636 25.0093 17 25.0093M9 25.0093H17" stroke="#827D89" stroke-width="2" stroke-linecap="round" stroke-linejoin="round"/>
</svg>
