<svg width="46" height="46" viewBox="0 0 46 46" fill="none" xmlns="http://www.w3.org/2000/svg">
<rect width="46" height="46" rx="23" fill="#3A2258"/>
<path d="M20.8582 27.5833H25.1417M23 14.75V15.6667M28.8336 17.1664L28.1854 17.8146M31.25 23H30.3333M15.6667 23H14.75M17.8145 17.8145L17.1663 17.1664M19.759 26.2409C17.9691 24.451 17.9691 21.549 19.759 19.7591C21.5489 17.9692 24.451 17.9692 26.2409 19.7591C28.0308 21.549 28.0308 24.451 26.2409 26.2409L25.7393 26.7424C25.1592 27.3226 24.8333 28.1094 24.8333 28.9299V29.4167C24.8333 30.4292 24.0125 31.25 23 31.25C21.9874 31.25 21.1666 30.4292 21.1666 29.4167V28.9299C21.1666 28.1094 20.8407 27.3226 20.2606 26.7424L19.759 26.2409Z" stroke="white" stroke-linecap="round" stroke-linejoin="round"/>
</svg>
