<svg width="46" height="46" viewBox="0 0 46 46" fill="none" xmlns="http://www.w3.org/2000/svg">
<rect width="46" height="46" rx="23" fill="#565510"/>
<path d="M20.25 16.5833H18.4167C17.4042 16.5833 16.5834 17.4041 16.5834 18.4167V29.4167C16.5834 30.4292 17.4042 31.25 18.4167 31.25H27.5834C28.5959 31.25 29.4167 30.4292 29.4167 29.4167V18.4167C29.4167 17.4041 28.5959 16.5833 27.5834 16.5833H25.75M20.25 16.5833C20.25 17.5959 21.0709 18.4167 22.0834 18.4167H23.9167C24.9292 18.4167 25.75 17.5959 25.75 16.5833M20.25 16.5833C20.25 15.5708 21.0709 14.75 22.0834 14.75H23.9167C24.9292 14.75 25.75 15.5708 25.75 16.5833" stroke="white" stroke-linecap="round"/>
</svg>
