<svg width="46" height="46" viewBox="0 0 46 46" fill="none" xmlns="http://www.w3.org/2000/svg">
<rect width="46" height="46" rx="23" fill="#1F7F40"/>
<path d="M14.75 14.75H16.5833L16.95 16.5833M18.4167 23.9167H27.5833L31.25 16.5833H16.95M18.4167 23.9167L16.95 16.5833M18.4167 23.9167L16.3148 26.0185C15.7374 26.596 16.1464 27.5833 16.963 27.5833H27.5833M27.5833 27.5833C26.5708 27.5833 25.75 28.4041 25.75 29.4167C25.75 30.4292 26.5708 31.25 27.5833 31.25C28.5959 31.25 29.4167 30.4292 29.4167 29.4167C29.4167 28.4041 28.5959 27.5833 27.5833 27.5833ZM20.25 29.4167C20.25 30.4292 19.4292 31.25 18.4167 31.25C17.4041 31.25 16.5833 30.4292 16.5833 29.4167C16.5833 28.4041 17.4041 27.5833 18.4167 27.5833C19.4292 27.5833 20.25 28.4041 20.25 29.4167Z" stroke="white" stroke-linecap="round" stroke-linejoin="round"/>
</svg>
